<?xml version="1.0" encoding="utf-8"?>
<!-- Generator: Adobe Illustrator 21.1.0, SVG Export Plug-In . SVG Version: 6.00 Build 0)  -->
<svg version="1.1" id="Layer_1" xmlns="http://www.w3.org/2000/svg" xmlns:xlink="http://www.w3.org/1999/xlink" x="0px" y="0px"
	 viewBox="0 0 512 512" style="enable-background:new 0 0 512 512;" xml:space="preserve">
<style type="text/css">
	.st0{fill:#2980B9;}
	.st1{fill:#3498DB;}
</style>
<title></title>
<g transform="translate(0 -1028.4)">
	<path class="st0" d="M265.2,1175.1c0,19.2-15.6,35-35,35h-87.4H90.4c-19.3,0-35,15.7-35,35v139.8v52.4c0,19.2,15.7,35,35,35H440
		c19.3,0,35-15.7,35-35v-52.4v-174.8c0-19.2-15.6-35-35-35H265.2z"/>
	<path class="st0" d="M90.4,1105.2c-19.3,0-35,15.7-35,35v87.4h174.8v17.5H475v-87.4c0-19.3-15.6-35-35-35H260.3
		c-6-10.4-17.1-17.5-30-17.5H90.4z"/>
	<path class="st1" d="M265.2,1157.6c0,19.2-15.6,35-35,35h-87.4H90.4c-19.3,0-35,15.7-35,35v139.8v52.4c0,19.2,15.7,35,35,35H440
		c19.3,0,35-15.7,35-35v-52.4v-174.8c0-19.2-15.6-35-35-35H265.2z"/>
</g>
</svg>
