<?xml version="1.0" standalone="no"?>
<!DOCTYPE svg PUBLIC "-//W3C//DTD SVG 1.1//EN" "http://www.w3.org/Graphics/SVG/1.1/DTD/svg11.dtd" >
<svg xmlns="http://www.w3.org/2000/svg">
<metadata>Generated by IcoMoon</metadata>
<defs>
<font id="icomoon" horiz-adv-x="1024">
<font-face units-per-em="1024" ascent="960" descent="-64" />
<missing-glyph horiz-adv-x="1024" />
<glyph unicode="&#x20;" horiz-adv-x="512" d="" />
<glyph unicode="&#xe900;" glyph-name="home" d="M458.632 181.056v204.096h136.064v-204.096h170.088v272.12h102.040l-340.16 306.144-340.16-306.144h102.048v-272.12h170.080z" />
<glyph unicode="&#xe901;" glyph-name="home_outline" d="M768.784 177.056h-178.088v204.096h-128.064v-204.096h-178.080v272.12h-108.464l350.576 315.528 350.576-315.528h-108.456v-272.12zM598.696 185.056h162.088v272.12h95.616l-329.736 296.76-329.736-296.76h95.624v-272.12h162.080v204.096h144.064v-204.096z" />
<glyph unicode="&#xe902;" glyph-name="mail" d="M747.192 706.664h-475.728c-32.712 0-59.176-26.76-59.176-59.472l-0.288-356.8c0-32.688 26.76-59.456 59.472-59.456h475.736c32.688 0 59.464 26.768 59.464 59.456v356.808c-0.016 32.712-26.792 59.464-59.48 59.464zM747.192 587.736l-237.864-148.672-237.864 148.672v59.464l237.864-148.664 237.864 148.664v-59.464z" />
<glyph unicode="&#xe903;" glyph-name="mail_outline" d="M747.192 226.944h-475.728c-35 0-63.472 28.472-63.472 63.456l0.288 356.8c0 34.992 28.344 63.464 63.176 63.464h475.736c34.992 0 63.464-28.472 63.464-63.472v-356.8c0-34.976-28.472-63.448-63.464-63.448v0zM271.464 702.664c-30.424 0-55.176-24.88-55.176-55.472l-0.288-356.8c0-30.576 24.88-55.456 55.472-55.456h475.736c30.576 0 55.464 24.872 55.464 55.456v356.808c0 30.584-24.88 55.472-55.464 55.472l-475.744-0.008zM509.328 434.344l-241.864 151.168v68.904l241.864-151.168 241.864 151.168v-68.904l-1.88-1.168-239.984-150zM275.464 589.952l233.864-146.168 233.864 146.168v50.024l-233.864-146.16-233.864 146.168v-50.032z" />
<glyph unicode="&#xe904;" glyph-name="plus" d="M761.28 435.096h-202.288v-202.28h-67.432v202.28h-202.28v67.432h202.288v202.28h67.432v-202.288h202.28v-67.424z" />
<glyph unicode="&#xe905;" glyph-name="plus_outline" d="M562.992 228.816h-75.432v202.28h-202.28v75.432h202.288v202.28h75.432v-202.288h202.28v-75.432h-202.288v-202.272zM495.56 236.816h59.432v202.28h202.288v59.432h-202.288v202.28h-59.432v-202.288h-202.28v-59.432h202.288v-202.272h-0.008z" />
<glyph unicode="&#xe906;" glyph-name="time" d="M525.048 711.416c-133.928 0-242.376-108.688-242.376-242.608 0-133.912 108.448-242.608 242.376-242.608 134.144 0 242.832 108.696 242.832 242.608 0 133.92-108.696 242.608-242.832 242.608zM525.28 274.72c-107.232 0-194.088 86.856-194.088 194.088s86.856 194.088 194.088 194.088c107.224 0 194.088-86.856 194.088-194.088s-86.864-194.088-194.088-194.088zM537.408 590.112h-36.384v-145.56l127.368-76.432 18.184 29.848-109.168 64.776v127.368z" />
<glyph unicode="&#xe907;" glyph-name="time_outline" d="M525.048 224.504c-135.856 0-246.376 110.624-246.376 246.608s110.52 246.608 246.376 246.608c136.104 0 246.832-110.624 246.832-246.608s-110.728-246.608-246.832-246.608v0zM525.048 709.72c-131.44 0-238.376-107.040-238.376-238.608s106.936-238.608 238.376-238.608c131.688 0 238.832 107.040 238.832 238.608s-107.144 238.608-238.832 238.608v0zM525.28 273.024c-109.232 0-198.096 88.856-198.096 198.088 0 109.224 88.864 198.088 198.096 198.088 109.216 0 198.080-88.856 198.080-198.088s-88.856-198.088-198.080-198.088v0zM525.28 661.2c-104.816 0-190.096-85.272-190.096-190.088s85.28-190.088 190.096-190.088c104.816 0 190.080 85.272 190.080 190.088s-85.264 190.088-190.080 190.088v0zM629.744 364.944l-132.728 79.64v151.832h44.392v-129.088l110.696-65.672-22.36-36.712zM505.016 449.12l122.024-73.216 14.016 23-107.648 63.872v125.64h-28.392v-139.296z" />
<glyph unicode="&#xe908;" glyph-name="accounting" d="M630.744 414.544c-29.12 0-52.648 23.504-52.648 52.648 0 29.128 23.528 52.656 52.648 52.656 29.2 0 52.656-23.528 52.656-52.656 0-29.136-23.456-52.648-52.656-52.648zM490.376 326.76h350.976v280.848h-350.976v-280.848zM806.304 256.584v-35.128c0-38.584-31.592-70.176-70.256-70.176h-491.368c-38.992 0-70.216 31.592-70.216 70.176v491.456c0 38.608 31.224 70.192 70.216 70.192h491.368c38.664 0 70.256-31.592 70.256-70.192v-35.112h-315.928c-38.96 0-70.224-31.584-70.224-70.192v-280.848c0-38.576 31.264-70.168 70.224-70.168h315.928z" />
<glyph unicode="&#xe909;" glyph-name="accounting_outline" d="M729.576 148.952h-471.392c-46.168 0-83.712 37.56-83.712 83.704v471.456c0 46.144 37.544 83.696 83.712 83.696h471.392c46.176 0 83.744-37.552 83.744-83.696v-50.040h-319.44c-28.12 0-51.008-22.872-51.008-50.984v-269.424c0-28.088 22.888-50.936 51.008-50.936h319.44v-50.072c0-46.144-37.56-83.704-83.744-83.704v0zM258.184 755.088c-28.12 0-51-22.864-51-50.984v-471.456c0-28.104 22.888-50.952 51-50.952h471.392c28.144 0 50.992 22.848 50.992 50.952v17.32h-286.688c-46.168 0-83.712 37.56-83.712 83.688v269.432c0 46.152 37.552 83.696 83.712 83.696h286.688v17.328c0 28.12-22.848 50.984-50.992 50.984l-471.392-0.008zM846.976 317.296h-369.456v302.152h369.456v-302.152zM510.24 350.024h303.984v236.712h-303.984v-236.712zM628.56 401.52c-36.856 0-66.888 29.992-66.888 66.864s30.032 66.864 66.888 66.864c36.848 0 66.88-29.992 66.88-66.864s-30.024-66.864-66.88-66.864v0zM628.56 502.544c-18.824 0-34.128-15.336-34.128-34.16 0-18.832 15.304-34.168 34.128-34.168s34.136 15.336 34.136 34.168c0 18.832-15.312 34.16-34.136 34.16v0z" />
<glyph unicode="&#xe90a;" glyph-name="calendar" d="M765.864 153.312h-512.712v402.856h512.712v-402.856zM656.008 812.536v-73.248h-293v73.248h-73.248v-73.248h-36.608c-40.664 0-72.904-32.968-72.904-73.24l-0.344-512.736c0-40.28 32.584-73.248 73.248-73.248h512.712c40.296 0 73.24 32.968 73.24 73.248v512.736c0 40.28-32.944 73.24-73.24 73.24h-36.608v73.248h-73.248z" />
<glyph unicode="&#xe90b;" glyph-name="calendar_outline" d="M761.976 73.44h-499.96c-48.992 0-88.856 39.872-88.856 88.856l0.336 500.008c0 48.968 39.696 88.832 88.52 88.832h18.272v71.424h106.288v-71.424h250.848v71.424h106.288v-71.424h18.264c48.992 0 88.856-39.856 88.856-88.848v-499.992c0-48.984-39.864-88.856-88.856-88.856v0zM262.016 716.28c-29.584 0-53.664-24.224-53.664-53.992l-0.336-500c0-29.752 24.224-53.984 54-53.984h499.96c29.776 0 53.992 24.232 53.992 54v499.984c0 29.768-24.216 53.992-53.992 53.992h-53.136v71.424h-36.56v-71.424h-320.576v71.424h-36.56v-71.424h-53.128zM779.408 144.872h-534.824v427.696h534.824v-427.696zM279.44 179.736h465.104v357.968h-465.104v-357.968z" />
<glyph unicode="&#xe90c;" glyph-name="contacts" d="M649.168 456.856c-10.048 0-21.496-0.688-33.648-1.704 40.224-29.12 68.288-68.216 68.288-119.4v-86.536h207.984v86.544c0 80.624-161.88 121.096-242.624 121.096zM371.856 456.856c-80.736 0-242.592-40.48-242.592-121.104v-86.536h485.24v86.544c0 80.624-161.88 121.096-242.648 121.096zM371.856 526.080c57.552 0 103.64 46.352 103.64 103.824s-46.088 103.824-103.64 103.824c-57.528 0-103.96-46.352-103.96-103.824 0-57.464 46.432-103.824 103.96-103.824zM649.168 526.080c57.504 0 103.616 46.352 103.616 103.824s-46.112 103.824-103.616 103.824c-57.576 0-103.976-46.352-103.976-103.824-0.008-57.464 46.392-103.824 103.976-103.824z" />
<glyph unicode="&#xe90d;" glyph-name="contacts_outline" d="M891.792 228.776h-235.464v100.728c0 39.688-20.112 74.384-59.752 103.072l-35.848 25.92 44.112 3.68c12.328 1.024 23.952 1.736 34.152 1.736 74.376 0 252.808-38.688 252.808-134.408v-100.728h-0.008zM689.136 261.568h169.856v67.936c0 60.656-131.96 98.688-211.040 101.456 27.352-29.448 41.176-63.44 41.176-101.456v-67.936h0.008zM621.592 228.776h-505.632v100.728c0 95.72 178.392 134.408 252.792 134.408 74.416 0 252.848-38.688 252.848-134.408v-100.728h-0.008zM148.72 261.568h440.080v67.936c0 63.040-142.472 101.608-220.048 101.608-77.552 0-220.024-38.568-220.024-101.608v-67.936h-0.008zM638.984 498.576c-64.888 0-117.728 52.76-117.728 117.568s52.832 117.576 117.728 117.576c64.736 0 117.368-52.76 117.368-117.576s-52.632-117.568-117.368-117.568v0zM638.984 700.92c-46.832 0-84.928-38.016-84.928-84.768s38.096-84.768 84.928-84.768c46.632 0 84.568 38.016 84.568 84.768s-37.936 84.768-84.568 84.768v0zM368.744 498.576c-64.896 0-117.688 52.76-117.688 117.568s52.8 117.576 117.688 117.576c64.728 0 117.368-52.76 117.368-117.576s-52.632-117.568-117.368-117.568v0zM368.744 700.92c-46.832 0-84.928-38.016-84.928-84.768s38.096-84.768 84.928-84.768c46.656 0 84.608 38.016 84.608 84.768s-37.952 84.768-84.608 84.768v0z" />
<glyph unicode="&#xe90e;" glyph-name="crm" d="M625.648 360.608c-21.832 0-41.392-8.624-56.328-22.128l-204.928 119.264c1.448 6.616 2.592 13.216 2.592 20.12s-1.144 13.504-2.592 20.128l202.624 118.12c15.52-14.36 35.936-23.272 58.632-23.272 47.712 0 86.224 38.512 86.224 86.224s-38.512 86.216-86.224 86.216c-47.704 0-86.216-38.512-86.216-86.224 0-6.904 1.152-13.52 2.592-20.128l-202.624-118.112c-15.52 14.36-35.936 23.272-58.64 23.272-47.704 0-86.224-38.512-86.224-86.224 0-47.704 38.512-86.224 86.224-86.224 22.696 0 43.112 8.904 58.64 23.28l204.624-119.544c-1.432-6.048-2.304-12.376-2.304-18.704 0-46.248 37.656-83.904 83.928-83.904 46.28 0 83.92 37.656 83.92 83.904 0 46.28-37.64 83.936-83.92 83.936z" />
<glyph unicode="&#xe90f;" glyph-name="crm_outline" d="M670.496 156.328c-56.008 0-101.552 45.544-101.552 101.536 0 3.912 0.256 7.912 0.808 12l-194.752 113.776c-18.080-13.592-39.832-20.984-62.304-20.984-57.32 0-103.936 46.608-103.936 103.928s46.616 103.936 103.936 103.936c22.464 0 44.216-7.392 62.304-21l192.616 112.288c-0.632 4.224-1.048 8.752-1.048 13.504 0 57.32 46.608 103.936 103.928 103.936s103.936-46.616 103.936-103.936-46.616-103.936-103.936-103.936c-22.472 0-44.216 7.392-62.296 21l-192.624-112.28c0.632-4.224 1.048-8.776 1.048-13.504s-0.424-9.272-1.048-13.488l195.112-113.56c17.52 12.896 38.408 19.88 59.808 19.88 55.992 0 101.536-45.544 101.536-101.552 0-56-45.544-101.544-101.536-101.544v0zM371.568 419.208l230.824-134.856-2.48-10.432c-1.328-5.624-2.008-11.024-2.008-16.056 0-40.008 32.56-72.576 72.584-72.576 40.008 0 72.568 32.568 72.568 72.576 0 40.024-32.56 72.584-72.568 72.584-17.712 0-35.008-6.832-48.728-19.208l-7.84-7.12-230.872 134.376 2.256 10.312c1.16 5.328 2.36 11.6 2.36 17.784s-1.2 12.464-2.36 17.792l-2.256 10.288 228.584 133.264 7.864-7.288c14.152-13.088 32.248-20.304 50.992-20.304 41.336 0 74.968 33.632 74.968 74.968s-33.632 74.968-74.968 74.968-74.968-33.632-74.968-74.968c0-6.2 1.208-12.472 2.36-17.768l2.272-10.312-228.6-133.264-7.864 7.28c-14.152 13.088-32.248 20.304-51 20.304-41.336 0-74.968-33.632-74.968-74.968s33.632-74.968 74.968-74.968c18.744 0 36.84 7.216 51 20.304l7.88 7.288z" />
<glyph unicode="&#xe910;" glyph-name="documents" d="M524.52 546.128v166.792l166.816-166.792h-166.816zM615.504 394.496h-242.6v60.656h242.6v-60.656zM615.504 273.192h-242.6v60.664h242.6v-60.664zM554.856 758.408h-242.616c-33.368 0-60.336-27.288-60.336-60.64l-0.32-485.232c0-33.344 26.992-60.64 60.36-60.64h364.216c33.36 0 60.656 27.296 60.656 60.64v363.92l-181.96 181.952z" />
<glyph unicode="&#xe911;" glyph-name="documents_outline" d="M668.976 154.16h-346.040c-39.344 0-71.352 32.128-71.352 71.616l0.304 461.040c0 39.464 32.008 71.6 71.336 71.6h236.296l181.088-181.088v-351.544c0-39.504-32.12-71.624-71.632-71.624v0zM323.216 730.4c-23.888 0-43.328-19.568-43.328-43.616l-0.304-461.040c0-24.024 19.44-43.584 43.344-43.584h346.040c24.056 0 43.624 19.56 43.624 43.608v302.944h-201.696v201.688h-187.68zM515.48 730.4l197.12-197.096v32.432l-164.672 164.664h-32.448zM538.904 556.72h110.68l-110.68 110.664v-110.664zM625.352 269.4h-258.504v85.64h258.504v-85.64zM394.856 297.408h202.48v29.624h-202.48v-29.624zM625.352 384.64h-258.504v85.648h258.504v-85.648zM394.856 412.656h202.48v29.616h-202.48v-29.616z" />
<glyph unicode="&#xe912;" glyph-name="home2" d="M458.632 181.056v204.096h136.064v-204.096h170.088v272.12h102.040l-340.16 306.144-340.16-306.144h102.048v-272.12h170.080z" />
<glyph unicode="&#xe913;" glyph-name="home_outline2" d="M768.784 177.056h-178.088v204.096h-128.064v-204.096h-178.080v272.12h-108.464l350.576 315.528 350.576-315.528h-108.456v-272.12zM598.696 185.056h162.088v272.12h95.616l-329.736 296.76-329.736-296.76h95.624v-272.12h162.080v204.096h144.064v-204.096z" />
<glyph unicode="&#xe914;" glyph-name="mail2" d="M747.192 706.664h-475.728c-32.712 0-59.176-26.76-59.176-59.472l-0.288-356.8c0-32.688 26.76-59.456 59.472-59.456h475.736c32.688 0 59.464 26.768 59.464 59.456v356.808c-0.016 32.712-26.792 59.464-59.48 59.464zM747.192 587.736l-237.864-148.672-237.864 148.672v59.464l237.864-148.664 237.864 148.664v-59.464z" />
<glyph unicode="&#xe915;" glyph-name="mail_outline2" d="M747.192 226.944h-475.728c-35 0-63.472 28.472-63.472 63.456l0.288 356.8c0 34.992 28.344 63.464 63.176 63.464h475.736c34.992 0 63.464-28.472 63.464-63.472v-356.8c0-34.976-28.472-63.448-63.464-63.448v0zM271.464 702.664c-30.424 0-55.176-24.88-55.176-55.472l-0.288-356.8c0-30.576 24.88-55.456 55.472-55.456h475.736c30.576 0 55.464 24.872 55.464 55.456v356.808c0 30.584-24.88 55.472-55.464 55.472l-475.744-0.008zM509.328 434.344l-241.864 151.168v68.904l241.864-151.168 241.864 151.168v-68.904l-1.88-1.168-239.984-150zM275.464 589.952l233.864-146.168 233.864 146.168v50.024l-233.864-146.16-233.864 146.168v-50.032z" />
<glyph unicode="&#xe916;" glyph-name="notification" d="M672.64 329.12v148.696c0 91.312-48.784 167.728-133.832 187.96v20.216c0 24.68-19.928 44.608-44.608 44.608-24.688 0-44.616-19.92-44.616-44.608v-20.216c-85.344-20.232-133.824-96.36-133.824-187.96v-148.696l-59.48-59.488v-29.736h475.832v29.736l-59.472 59.488zM494.2 180.424c32.712 0 59.48 26.76 59.48 59.48h-118.96c0-32.728 26.464-59.48 59.48-59.48z" />
<glyph unicode="&#xe917;" glyph-name="notification_outline" d="M501.888 168.296c-37.096 0-68.168 26.168-75.752 61.032h-184.84v53.816l61.032 61.040v145.736c0 100.328 53.44 179.512 137.32 205.44v8.168c0 34.328 27.912 62.24 62.248 62.24 34.32 0 62.24-27.912 62.24-62.24v-8.168c83.872-26.008 137.312-105.176 137.312-205.44v-145.744l61.032-61.040v-53.816h-184.848c-7.584-34.848-38.656-61.024-75.744-61.024v0zM460.48 229.328c6.576-16.448 22.656-28.096 41.408-28.096s34.824 11.648 41.4 28.096h-82.808zM579.384 262.264h150.16v7.216l-61.032 61.024v159.416c0 90.784-47.784 158.536-124.656 176.832l-12.664 3.024v33.752c0 16.152-13.152 29.304-29.296 29.304-16.16 0-29.312-13.152-29.312-29.304v-33.776l-12.672-3c-76.88-18.232-124.64-85.984-124.64-176.832v-159.416l-61.032-61.024v-7.216h305.144z" />
<glyph unicode="&#xe918;" glyph-name="photos" d="M255.52 250.288l123.28 158.544 88.112-106.032 123.28 158.88 158.544-211.4h-493.216zM748.744 778.776h-493.224c-38.768 0-70.48-31.712-70.48-70.44v-493.296c0-38.744 31.712-70.44 70.48-70.44h493.224c38.776 0 70.472 31.696 70.472 70.44v493.296c-0.008 38.728-31.704 70.44-70.472 70.44z" />
<glyph unicode="&#xe919;" glyph-name="photos_outline" d="M732.888 146.848h-471.448c-46.176 0-83.728 37.568-83.728 83.704v471.52c0 46.144 37.552 83.712 83.728 83.712h471.456c46.168 0 83.736-37.568 83.736-83.712v-471.52c-0.008-46.128-37.568-83.704-83.744-83.704v0zM261.44 753.024c-28.12 0-51.008-22.848-51.008-50.952v-471.52c0-28.096 22.896-50.944 51.008-50.944h471.456c28.128 0 50.976 22.848 50.976 50.944v471.52c0 28.104-22.848 50.952-50.976 50.952h-471.456zM765.592 247.88h-537.624l150.888 194.048 84.2-101.344 118.496 152.728 184.040-245.432zM294.904 280.632h405.232l-119.008 158.688-117.192-151-84.248 101.352-84.784-109.040z" />
<glyph unicode="&#xe91a;" glyph-name="plus2" d="M761.28 435.096h-202.288v-202.28h-67.432v202.28h-202.28v67.432h202.288v202.28h67.432v-202.288h202.28v-67.424z" />
<glyph unicode="&#xe91b;" glyph-name="plus_outline2" d="M562.992 228.816h-75.432v202.28h-202.28v75.432h202.288v202.28h75.432v-202.288h202.28v-75.432h-202.288v-202.272zM495.56 236.816h59.432v202.28h202.288v59.432h-202.288v202.28h-59.432v-202.288h-202.28v-59.432h202.288v-202.272h-0.008z" />
<glyph unicode="&#xe91c;" glyph-name="projects" d="M560.080 382.568h-219.592v-62.752h219.592v62.752zM716.936 225.704h-439.184v345.096h439.184v-345.096zM716.936 727.64h-31.368v62.752h-62.768v-62.752h-250.96v62.752h-62.72v-62.752h-31.36c-34.824 0-62.44-28.232-62.44-62.752l-0.328-439.184c0-34.496 27.944-62.728 62.768-62.728h439.184c34.504 0 62.728 28.232 62.728 62.728v439.184c-0.008 34.52-28.232 62.752-62.736 62.752zM654.168 508.048h-313.68v-62.752h313.68v62.752z" />
<glyph unicode="&#xe91d;" glyph-name="projects_outline" d="M709.64 156.888h-424.584c-42.576 0-77.2 34.608-77.2 77.152l0.32 424.608c0 42.536 34.488 77.16 76.88 77.16h13.808v60.664h93.672v-60.664h209.584v60.664h93.72v-60.664h13.808c42.552 0 77.16-34.624 77.16-77.176v-424.584c-0.008-42.552-34.616-77.16-77.168-77.16v0zM285.056 702.776c-24.168 0-43.848-19.8-43.848-44.152l-0.32-424.6c0-24.304 19.824-44.112 44.168-44.112h424.584c24.328 0 44.128 19.808 44.128 44.128v424.584c0 24.344-19.8 44.152-44.128 44.152h-46.832v60.664h-27.648v-60.664h-275.656v60.664h-27.608v-60.664h-46.84zM726.16 217.528h-457.624v366.648h457.624v-366.648zM301.568 250.552h391.56v300.592h-391.56v-300.592zM574.512 308.512h-245.328v93.688h245.336v-93.688h-0.008zM362.208 341.536h179.264v27.632h-179.264v-27.632zM665.472 429.816h-336.288v93.696h336.288v-93.696zM362.208 462.848h270.232v27.632h-270.232v-27.632z" />
<glyph unicode="&#xe91e;" glyph-name="purchase" d="M503.504 279.552h-205v136.68h205v-136.68zM811.016 416.232v68.328l-34.168 170.832h-546.672l-34.176-170.832v-68.328h34.176v-205.008h341.664v205.008h136.68v-205.008h68.328v205.008h34.168zM776.84 757.896h-546.664v-68.328h546.664v68.328z" />
<glyph unicode="&#xe91f;" glyph-name="purchase_outline" d="M781.616 218.664h-94.408v190.64h-96.232v-190.64h-348.592v190.64h-31.784v78.976l34.552 174.296h533.68l34.256-171.264 0.296-82.008h-31.784v-190.64h0.016zM718.080 249.528h32.672v190.64h31.784v48.112l-28.984 143.432h-483.072l-29.304-146.464 0.224-45.080h31.856v-190.64h286.856v190.64h157.968v-190.64zM527.44 282.2h-221.512v157.968h221.512v-157.968zM336.792 313.072h159.776v96.232h-159.776v-96.232zM781.616 663.488h-539.232v94.408h539.232v-94.408zM273.256 694.352h477.496v32.672h-477.496v-32.672z" />
<glyph unicode="&#xe920;" glyph-name="sales" d="M431.944 582.384c0 37.896 35.312 64.328 94.416 64.328 62.232 0 85.304-29.552 87.424-73.016h77.264c-2.44 59.816-39.152 114.752-112.248 132.504v76.168h-104.888v-75.128c-67.848-14.624-122.384-58.44-122.384-125.56 0-80.336 66.784-120.32 164.336-143.616 87.416-20.872 104.896-51.48 104.896-83.832 0-23.992-17.136-62.248-94.408-62.248-72.032 0-100.352 31.992-104.216 73.040h-76.92c4.192-76.168 61.544-118.936 128.68-133.184v-75.48h104.904v74.768c68.2 12.864 122.392 52.168 122.392 123.472 0 98.76-84.968 132.504-164.328 153-79.384 20.52-104.92 41.752-104.92 74.784z" />
<glyph unicode="&#xe921;" glyph-name="sales_outline" d="M594.456 168.576h-129.152v73.296c-71.312 19.376-115.512 69.112-119.152 135.064l-0.928 16.896h102.728l1.368-14.504c3.36-35.752 29.704-53.136 80.56-53.136 66.24 0 71.4 31.864 71.4 41.64 0 13.552 0 41.776-84.84 62.032-70.616 16.864-164.48 50.624-164.48 148.584 0 61.048 43.064 109.528 113.336 128.84v73.008h129.152v-74.416c61.872-19.72 101.32-70.144 103.944-134.168l0.68-16.664h-103.496l-0.736 15.24c-1.264 25.904-9.968 52.376-64.952 52.376-43.384 0-71.424-17.088-71.424-43.552 0-15.352 6.584-33.432 85.152-53.752 49.12-12.688 164.168-42.416 164.168-157.192 0-62.776-42.072-109.624-113.336-127.24v-72.352h0.008zM497.328 200.6h65.104v66.52l13.040 2.448c37.456 7.072 100.296 29.28 100.296 98.6 0 79.072-67.368 107.368-140.168 126.176-65.528 16.936-109.16 37.832-109.16 84.768 0 45.216 41.56 75.576 103.448 75.576 66.648 0 89.248-33.936 95.248-67.616h39.48c-7.912 45.64-40.576 79.128-89.96 91.12l-12.224 2.976v67.112h-65.104v-66.496l-12.632-2.72c-48.688-10.488-100.704-42.432-100.704-100.608 0-58.096 43.152-94.312 139.912-117.408 75.672-18.080 109.416-46.824 109.416-93.208 0-12.304-4.984-73.664-103.424-73.664-77.856 0-102.656 37.544-110.032 67.64h-39.632c12.84-65.072 76.16-85.664 104.408-91.664l12.688-2.688v-66.864z" />
<glyph unicode="&#xe922;" glyph-name="time2" d="M525.048 711.416c-133.928 0-242.376-108.688-242.376-242.608 0-133.912 108.448-242.608 242.376-242.608 134.144 0 242.832 108.696 242.832 242.608 0 133.92-108.696 242.608-242.832 242.608zM525.28 274.72c-107.232 0-194.088 86.856-194.088 194.088s86.856 194.088 194.088 194.088c107.224 0 194.088-86.856 194.088-194.088s-86.864-194.088-194.088-194.088zM537.408 590.112h-36.384v-145.56l127.368-76.432 18.184 29.848-109.168 64.776v127.368z" />
<glyph unicode="&#xe923;" glyph-name="time_outline2" d="M525.048 224.504c-135.856 0-246.376 110.624-246.376 246.608s110.52 246.608 246.376 246.608c136.104 0 246.832-110.624 246.832-246.608s-110.728-246.608-246.832-246.608v0zM525.048 709.72c-131.44 0-238.376-107.040-238.376-238.608s106.936-238.608 238.376-238.608c131.688 0 238.832 107.040 238.832 238.608s-107.144 238.608-238.832 238.608v0zM525.28 273.024c-109.232 0-198.096 88.856-198.096 198.088 0 109.224 88.864 198.088 198.096 198.088 109.216 0 198.080-88.856 198.080-198.088s-88.856-198.088-198.080-198.088v0zM525.28 661.2c-104.816 0-190.096-85.272-190.096-190.088s85.28-190.088 190.096-190.088c104.816 0 190.080 85.272 190.080 190.088s-85.264 190.088-190.080 190.088v0zM629.744 364.944l-132.728 79.64v151.832h44.392v-129.088l110.696-65.672-22.36-36.712zM505.016 449.12l122.024-73.216 14.016 23-107.648 63.872v125.64h-28.392v-139.296z" />
</font>
</defs>
</svg>
