<?xml version="1.0" encoding="UTF-8"?>
<svg width="22px" height="22px" viewBox="0 0 22 22" version="1.1" xmlns="http://www.w3.org/2000/svg" xmlns:xlink="http://www.w3.org/1999/xlink">
    <!-- Generator: Sketch 46.2 (44496) - http://www.bohemiancoding.com/sketch -->
    <title>Artboard</title>
    <desc>Created with Sketch.</desc>
    <defs></defs>
    <g id="Style-Sheet-and-Components" stroke="none" stroke-width="1" fill="none" fill-rule="evenodd">
        <g id="Artboard">
            <circle id="Oval-10" stroke="#979797" fill="#FFFFFF" cx="11" cy="11" r="7"></circle>
            <path d="M11.0023518,0.407351495 C5.15391162,0.407351495 0.407351495,5.15285803 0.407351495,11 C0.407351495,16.847142 5.15391162,21.5926485 11.0023518,21.5926485 C16.8507919,21.5926485 21.597352,16.847142 21.597352,11 C21.597352,5.15285803 16.8507919,0.407351495 11.0023518,0.407351495 L11.0023518,0.407351495 Z M16.2998519,12.0592649 L12.0618518,12.0592649 L12.0618518,16.2963243 L9.94285174,16.2963243 L9.94285174,12.0592649 L5.70485163,12.0592649 L5.70485163,9.94073515 L9.94285174,9.94073515 L9.94285174,5.70367575 L12.0618518,5.70367575 L12.0618518,9.94073515 L16.2998519,9.94073515 L16.2998519,12.0592649 L16.2998519,12.0592649 Z" id="Shape" fill="#61C771"></path>
        </g>
    </g>
</svg>