<svg id="Logo" xmlns="http://www.w3.org/2000/svg" viewBox="0 0 374.7 114.9"><style>.st0{fill:#fff}</style><path class="st0" d="M136.8 64.1l-9-3.6c-3.5-1.5-6-3.2-7.5-5.3-1.5-2.1-2.2-4.8-2.2-8.2 0-5.1 1.3-8.6 3.8-10.3 2.6-1.8 7.1-2.7 13.7-2.7 6.3 0 11.5.7 15.6 2l-.8 8.1c-7.7-.1-12.7-.2-15-.2-2.1 0-3.5.2-4.2.5-.7.4-1.1 1.1-1.1 2.3 0 1 .3 1.8.9 2.3.6.6 1.7 1.1 3.4 1.7l8.3 3.2c3.6 1.5 6.1 3.2 7.6 5.3 1.5 2.1 2.2 4.9 2.2 8.3 0 5.2-1.3 8.7-3.8 10.6-2.5 1.9-7.1 2.9-13.8 2.9-5.7 0-11.2-.7-16.5-2l.7-8.8c8.9.2 14.1.3 15.7.3 2.2 0 3.6-.2 4.3-.6.7-.4 1.1-1.1 1.1-2.3 0-1.1-.3-1.8-.7-2.3-.4-.2-1.3-.7-2.7-1.2zm51.9 5.9l1 9c-3.9 1.4-9 2-15.2 2-7.2 0-12.3-1.8-15.2-5.3-3-3.5-4.4-9.6-4.4-18.3 0-8.7 1.5-14.8 4.4-18.3 3-3.5 8-5.3 15.2-5.3 5.5 0 10.2.6 14.2 1.7l-.9 9.1c-4.4-.1-8.9-.2-13.3-.2-2.7 0-4.5.9-5.4 2.7-.9 1.8-1.4 5.2-1.4 10.3 0 5.1.5 8.6 1.4 10.3.9 1.8 2.7 2.7 5.4 2.7 6.3.1 11 0 14.2-.4zm31.8-.5h-13.8L204 80.3h-12.5L203.8 38c.2-1 .7-1.7 1.5-2.3.8-.6 1.6-.9 2.6-.9h11.3c1 0 1.9.3 2.6.9.8.6 1.3 1.4 1.5 2.3l12.3 42.3h-12.5l-2.6-10.8zm-2.3-9l-2.9-11.7c-.5-2.3-.8-3.9-.8-4.8h-1.8c-.3 1.7-.6 3.3-.9 4.8l-2.9 11.7h9.3zm37.3 5.2v14.6h-12.3V65.8l-14.9-31h12.6l6.5 15.4c.6 1.3 1.1 3.4 1.5 6.1h.8c.6-3.1 1.1-5.1 1.5-6.1l6.5-15.4h12.6l-14.8 30.9zm30.2-31v32.8c0 1.9 1 2.8 3.1 2.8H304l.6 9.3c-4.3.5-11.1.8-20.7.8-3.3 0-5.9-.9-7.8-2.7-1.8-1.8-2.7-4.3-2.7-7.3V34.7h12.3zm50.2 34.8h-13.8l-2.7 10.8h-12.5L319.3 38c.2-1 .7-1.7 1.5-2.3.8-.6 1.6-.9 2.6-.9h11.3c1 0 1.9.3 2.6.9.8.6 1.3 1.4 1.5 2.3l12.3 42.3h-12.5l-2.7-10.8zm-2.2-9l-2.9-11.7c-.5-2.3-.8-3.9-.8-4.8h-1.8c-.3 1.7-.6 3.3-.9 4.8l-2.9 11.7h9.3zm-293.4 16c3.2 1.8 7 3.1 10.8 3.7.3 0 .5.1.8.1 1.4.2 2.7.3 4.1.4 2.3.2 4.6.3 6.9.3 7.1 0 12-1 14.8-2.9 2.7-1.9 4.1-5.5 4.1-10.6 0-3.4-.8-6.2-2.4-8.3-1.6-2.1-4.3-3.9-8.2-5.3l-8.9-3.2c-1.8-.6-3-1.1-3.6-1.7-.7-.5-1-1.3-1-2.3 0-1.2.4-2 1.2-2.3.8-.4 2.3-.5 4.5-.5h2.5c1.9 0 3.8.1 5.8.3.2 0 1.5.2 1.7.2 4.8.6 9 2.7 12.3 5.8 4.4 4.2 7.1 10.1 7.1 16.6 0 12.7-10.3 22.9-22.9 22.9-5.1 0-9.7-1.6-13.5-4.4h-13C49.2 93.6 58.9 99 69.8 99c17.9 0 32.4-14.5 32.4-32.4 0-12.1-6.7-22.8-16.6-28.3-3.4-1.9-7.3-3.2-11.2-3.7h-.1c-.5-.1-1.1-.1-1.7-.2-2.8-.3-5.9-.5-9.2-.5-7 0-11.9.9-14.7 2.7-2.7 1.8-4.1 5.2-4.1 10.3 0 3.4.8 6.1 2.4 8.2 1.6 2.1 4.3 3.9 8 5.3l9.6 3.6c1.5.5 2.5 1 3 1.5s.8 1.3.8 2.3c0 1.1-.4 1.9-1.2 2.3-.5.2-1.4.5-2.6.6-6.4.6-11.5.2-15.5-.9-.7-.2-1.3-.3-1.9-.5-.9-.3-2.1-.9-3.1-1.4-6.1-3.1-8.7-8.4-10.1-12.7-.7-2.2-1.1-4.5-1.1-6.9 0-12.7 10.3-22.9 22.9-22.9 5.1 0 9.7 1.6 13.5 4.4h13c-5.9-8.4-15.6-13.9-26.5-13.9-17.9 0-32.4 14.5-32.4 32.4.3 12.1 7 22.6 16.9 28.2"/></svg>