<svg xmlns="http://www.w3.org/2000/svg" width="24" height="24" viewBox="0 0 24 24"><path fill="none" d="M0 0h24v24H0V0z"/><path fill="#FFF" d="M14 22.5h-4a.989.989 0 0 1-.986-.857l-.339-2.365a7.906 7.906 0 0 1-1.308-.759l-2.23.896c-.517.188-1.008-.028-1.236-.443L1.907 15.52a1.005 1.005 0 0 1 .243-1.281l1.892-1.479C4.016 12.509 4 12.254 4 12s.016-.508.042-.758l-1.89-1.478a1 1 0 0 1-.243-1.288L3.907 5.02c.226-.413.77-.613 1.226-.436l2.237.899c.436-.309.867-.56 1.305-.76l.34-2.374A.988.988 0 0 1 10 1.5h4a.99.99 0 0 1 .986.857l.339 2.365c.452.206.89.46 1.309.759l2.229-.896c.519-.188 1.009.028 1.235.445l1.994 3.449c.243.448.138.982-.243 1.283l-1.891 1.479c.026.247.042.498.042.759s-.016.512-.041.76l1.889 1.477c.383.302.488.836.252 1.271l-2.007 3.473a.98.98 0 0 1-.861.504.988.988 0 0 1-.364-.068l-2.236-.898a8.153 8.153 0 0 1-1.306.76l-.34 2.374A.988.988 0 0 1 14 22.5zm-6.482-5.12l.227.174a6.868 6.868 0 0 0 1.575.913l.265.108.42 2.934L14 21.5h.003l.413-2.925.265-.108a7.149 7.149 0 0 0 1.58-.917l.226-.168 2.75 1.104 1.991-3.467-2.33-1.82.036-.282c.038-.3.066-.599.066-.917s-.028-.617-.066-.917l-.036-.282 2.335-1.825-2.005-3.456-2.745 1.1-.227-.174a6.785 6.785 0 0 0-1.575-.914l-.265-.109-.421-2.933L10 2.5l-.416 2.924-.265.108a7.19 7.19 0 0 0-1.579.918l-.225.169-2.751-1.105L2.773 8.98l2.328 1.821-.035.281c-.038.3-.066.609-.066.918s.028.618.066.918l.035.282-2.333 1.823 2.005 3.457 2.745-1.1zM12 16c-2.206 0-4-1.794-4-4s1.794-4 4-4 4 1.794 4 4-1.794 4-4 4zm0-7c-1.654 0-3 1.346-3 3s1.346 3 3 3 3-1.346 3-3-1.346-3-3-3z"/></svg>