<svg xmlns="http://www.w3.org/2000/svg" width="24" height="24" viewBox="0 0 24 24"><path fill="none" d="M0 0h24v24H0V0z"/><path fill="#FFF" d="M19.43 12.98c.041-.32.07-.641.07-.98s-.029-.66-.07-.98l2.11-1.65c.19-.15.239-.42.12-.64l-2-3.46c-.12-.22-.391-.3-.61-.22l-2.489 1c-.521-.4-1.08-.73-1.69-.98l-.38-2.65A.49.49 0 0 0 14 2h-4c-.25 0-.46.18-.49.42l-.38 2.65c-.61.25-1.17.59-1.69.98l-2.49-1c-.23-.09-.49 0-.61.22l-2 3.46c-.13.22-.07.49.12.64l2.11 1.65c-.04.32-.07.65-.07.98s.03.66.07.98l-2.11 1.65c-.19.15-.24.42-.12.64l2 3.461c.12.22.39.3.61.22l2.49-1c.52.399 1.08.729 1.69.979l.38 2.65c.03.24.24.42.49.42h4c.25 0 .46-.18.49-.42l.38-2.65c.61-.25 1.17-.59 1.69-.979l2.489 1c.229.09.49 0 .61-.22l2-3.461a.506.506 0 0 0-.12-.64l-2.109-1.65zM12 15.5c-1.93 0-3.5-1.57-3.5-3.5s1.57-3.5 3.5-3.5 3.5 1.57 3.5 3.5-1.57 3.5-3.5 3.5z"/></svg>